<svg width="200" height="200" viewBox="0 0 200 200" xmlns="http://www.w3.org/2000/svg">
  <!-- 고양이 몸체 -->
  <ellipse cx="100" cy="130" rx="45" ry="35" fill="#FF8C42" stroke="#333" stroke-width="2"/>

  <!-- 고양이 머리 -->
  <circle cx="100" cy="80" r="35" fill="#FF8C42" stroke="#333" stroke-width="2"/>

  <!-- 귀 -->
  <polygon points="75,55 85,35 95,55" fill="#FF8C42" stroke="#333" stroke-width="2"/>
  <polygon points="105,55 115,35 125,55" fill="#FF8C42" stroke="#333" stroke-width="2"/>
  <polygon points="80,50 85,40 90,50" fill="#FFB366"/>
  <polygon points="110,50 115,40 120,50" fill="#FFB366"/>

  <!-- 눈 -->
  <ellipse cx="88" cy="75" rx="6" ry="8" fill="#333"/>
  <ellipse cx="112" cy="75" rx="6" ry="8" fill="#333"/>
  <ellipse cx="90" cy="73" rx="2" ry="3" fill="#FFF"/>
  <ellipse cx="114" cy="73" rx="2" ry="3" fill="#FFF"/>

  <!-- 코 -->
  <polygon points="100,85 95,90 105,90" fill="#FF69B4"/>

  <!-- 입 -->
  <path d="M 100 90 Q 95 95 90 90" stroke="#333" stroke-width="2" fill="none"/>
  <path d="M 100 90 Q 105 95 110 90" stroke="#333" stroke-width="2" fill="none"/>

  <!-- 수염 -->
  <line x1="60" y1="80" x2="80" y2="82" stroke="#333" stroke-width="2"/>
  <line x1="60" y1="90" x2="80" y2="90" stroke="#333" stroke-width="2"/>
  <line x1="120" y1="82" x2="140" y2="80" stroke="#333" stroke-width="2"/>
  <line x1="120" y1="90" x2="140" y2="90" stroke="#333" stroke-width="2"/>

  <!-- 앞발 -->
  <ellipse cx="80" cy="155" rx="8" ry="18" fill="#FF8C42" stroke="#333" stroke-width="2"/>
  <ellipse cx="120" cy="155" rx="8" ry="18" fill="#FF8C42" stroke="#333" stroke-width="2"/>

  <!-- 뒷발 -->
  <ellipse cx="75" cy="165" rx="8" ry="15" fill="#FF8C42" stroke="#333" stroke-width="2"/>
  <ellipse cx="125" cy="165" rx="8" ry="15" fill="#FF8C42" stroke="#333" stroke-width="2"/>

  <!-- 꼬리 -->
  <path d="M 145 130 Q 170 120 165 100 Q 160 85 175 75" stroke="#FF8C42" stroke-width="12" fill="none" stroke-linecap="round"/>
  <path d="M 145 130 Q 170 120 165 100 Q 160 85 175 75" stroke="#333" stroke-width="2" fill="none"/>

  <!-- 배 무늬 -->
  <ellipse cx="100" cy="125" rx="20" ry="15" fill="#FFB366"/>
</svg>